<?xml version="1.0" encoding="utf-8"?>
<!-- Generator: Adobe Illustrator 22.1.0, SVG Export Plug-In . SVG Version: 6.00 Build 0)  -->
<svg version="1.1" id="Layer_1" xmlns="http://www.w3.org/2000/svg" xmlns:xlink="http://www.w3.org/1999/xlink" x="0px" y="0px"
	 viewBox="0 0 12 16" style="enable-background:new 0 0 12 16;" xml:space="preserve">
<style type="text/css">
	.st0{fill:#0066B3;}
</style>
<path class="st0" d="M10.6,4L8,1.4L8,4C8,4,10.6,4,10.6,4z M7,1H1v14h10V5L8,5C7.5,5,7,4.5,7,4L7,1L7,1z M1,0h7l4,4v11
	c0,0.6-0.4,1-1,1H1c-0.6,0-1-0.4-1-1V1C0,0.4,0.4,0,1,0z"/>
<path class="st0" d="M3,9h6v1H3V9z M3,12h6v1H3V12z"/>
</svg>
