<?xml version="1.0" encoding="utf-8"?>
<!-- Generator: Adobe Illustrator 22.1.0, SVG Export Plug-In . SVG Version: 6.00 Build 0)  -->
<svg version="1.1" id="Layer_1" xmlns="http://www.w3.org/2000/svg" xmlns:xlink="http://www.w3.org/1999/xlink" x="0px" y="0px"
	 viewBox="0 0 12 12" style="enable-background:new 0 0 12 12;" xml:space="preserve">
<style type="text/css">
	.st0{fill:#383838;}
</style>
<path class="st0" d="M10.7,0.7H7.9V0H12v4.1h-0.8V1.3l-4,4L6.8,4.7L10.7,0.7z"/>
<path class="st0" d="M10.7,0.7H7.9V0H12v4.1h-0.8V1.3l-4,4L6.8,4.7L10.7,0.7z"/>
<path class="st0" d="M9.8,6.7h0.8v4.5c0,0.4-0.3,0.8-0.8,0.8h-9C0.3,12,0,11.7,0,11.2v-9c0-0.4,0.3-0.8,0.8-0.8H6v0.8H0.8v9h9V6.7z"
	/>
</svg>
